# xmcd CD database file
#
# Track frame offsets:
#	150
#	15757
#	27554
#	45588
#	60535
#	74139
#	86970
#	100699
#	122028
#	135207
#	149043
#	157106
#	181598
#	198794
#	224718
#
# Disc length: 4180 seconds
#
# Revision: 1
# Processed by: cddbd v1.5.2PL0 Copyright (c) Steve Scherf et al.
# Submitted via: CDex 1.51
#
DISCID=d710520f
DTITLE=Toxkäpp - Zwee Toun Ska Punk
DYEAR=2005
DGENRE=Jazz
TTITLE0=	Vugelsmillen
TTITLE1=Net bezuelt
TTITLE2=Gutt verséchert
TTITLE3=Friess oder stierf
TTITLE4=Ee fir se all
TTITLE5=Fir ze laachen
TTITLE6=Virveruerteelt
TTITLE7=Ech si cool
TTITLE8=Konkurrenza
TTITLE9=Freakshow
TTITLE10=Een Schrëtt ze wäiiit...
TTITLE11=Zréck an d'Natur (mee net zu Fouss)
TTITLE12=De Schmadd
TTITLE13=Lief däi Liewen
TTITLE14=VideoTrack
EXTD=YEAR: 2005
EXTT0=
EXTT1=
EXTT2=
EXTT3=
EXTT4=
EXTT5=
EXTT6=
EXTT7=
EXTT8=
EXTT9=
EXTT10=
EXTT11=
EXTT12=
EXTT13=
EXTT14=
PLAYORDER=
